<?xml version="1.0" standalone="no"?>
<!DOCTYPE svg PUBLIC "-//W3C//DTD SVG 20010904//EN"
 "http://www.w3.org/TR/2001/REC-SVG-20010904/DTD/svg10.dtd">
<svg version="1.0" xmlns="http://www.w3.org/2000/svg"
 width="21.000000pt" height="17.000000pt" viewBox="0 0 21.000000 17.000000"
 preserveAspectRatio="xMidYMid meet">
<metadata>
Created by potrace 1.10, written by Peter Selinger 2001-2011
</metadata>
<g transform="translate(0.000000,17.000000) scale(0.100000,-0.100000)"
fill="#000000" stroke="none">
<path d="M0 85 l0 -85 108 1 c59 1 99 3 90 6 -13 3 -18 15 -18 41 l0 36 -38
-37 -38 -37 -29 30 c-33 34 -26 54 8 22 l22 -21 53 50 c67 65 67 79 2 79 -32
0 -50 -4 -50 -12 0 -9 -3 -9 -12 0 -7 7 -31 12 -55 12 l-43 0 0 -85z m72 45
l37 -30 32 30 c53 48 69 36 19 -15 -24 -25 -49 -45 -54 -45 -5 0 -23 12 -38
27 l-28 27 0 -57 c0 -44 -3 -57 -15 -57 -12 0 -15 15 -15 75 0 86 6 91 62 45z"/>
</g>
</svg>
